<svg width="32" height="32" viewBox="0 0 32 32" fill="none" xmlns="http://www.w3.org/2000/svg">
<g clip-path="url(#clip0_1141_405)">
<rect opacity="0.3" x="0.00390625" width="32" height="32" rx="16" fill="white"/>
</g>
<path fill-rule="evenodd" clip-rule="evenodd" d="M21.986 9.28003H10.0244C9.61611 9.28003 9.28516 9.61098 9.28516 10.0192V21.9808C9.28516 22.1769 9.36304 22.3649 9.50166 22.5035C9.64029 22.6421 9.82831 22.72 10.0244 22.72H16.4621V17.512H14.7149V15.496H16.4621V13.984C16.3889 13.2655 16.6369 12.5513 17.1398 12.0328C17.6427 11.5144 18.349 11.2447 19.0695 11.296C19.5925 11.2928 20.1153 11.3197 20.6352 11.3767V13.1911H19.5668C18.72 13.1911 18.5588 13.5943 18.5588 14.1789V15.4759H20.5748L20.3127 17.4919H18.5588V22.72H21.986C22.182 22.72 22.37 22.6421 22.5086 22.5035C22.6473 22.3649 22.7252 22.1769 22.7252 21.9808V10.0192C22.7252 9.82318 22.6473 9.63516 22.5086 9.49654C22.37 9.35791 22.182 9.28003 21.986 9.28003Z" fill="white"/>
<defs>
<clipPath id="clip0_1141_405">
<rect width="32" height="32" fill="white" transform="translate(0.00390625)"/>
</clipPath>
</defs>
</svg>
