<svg width="32" height="32" viewBox="0 0 32 32" fill="none" xmlns="http://www.w3.org/2000/svg">
<g clip-path="url(#clip0_1141_415)">
<rect opacity="0.3" width="32" height="32" rx="16" fill="white"/>
</g>
<path fill-rule="evenodd" clip-rule="evenodd" d="M22.26 9.33311H10.402C10.1328 9.32937 9.87319 9.43273 9.68021 9.62046C9.48722 9.80819 9.37673 10.0649 9.37305 10.3341V22.3321C9.37673 22.6013 9.48722 22.858 9.68021 23.0457C9.87319 23.2335 10.1328 23.3368 10.402 23.3331H22.26C22.5292 23.3368 22.7889 23.2335 22.9819 23.0457C23.1749 22.858 23.2854 22.6013 23.289 22.3321V10.3341C23.2854 10.0649 23.1749 9.80819 22.9819 9.62046C22.7889 9.43273 22.5292 9.32937 22.26 9.33311ZM13.5936 21.0512H11.4936V14.7512H13.5936V21.0512ZM12.5445 13.8692C11.9414 13.8692 11.4525 13.3803 11.4525 12.7772C11.4525 12.1741 11.9414 11.6852 12.5445 11.6852C12.9642 11.6377 13.374 11.8348 13.5988 12.1923C13.8235 12.5499 13.8235 13.0046 13.5988 13.3622C13.374 13.7197 12.9642 13.9168 12.5445 13.8692ZM21.1673 21.0512H19.0673V17.6702C19.0673 16.8232 18.7663 16.2702 18.0033 16.2702C17.5196 16.2738 17.0894 16.5783 16.9253 17.0332C16.8705 17.1978 16.8468 17.371 16.8553 17.5442V21.0442H14.7553C14.7553 21.0442 14.7553 15.3182 14.7553 14.7442H16.8553V15.6332C17.2441 14.9586 17.9742 14.5545 18.7523 14.5832C20.1523 14.5832 21.1673 15.4862 21.1673 17.4252V21.0512Z" fill="white"/>
<defs>
<clipPath id="clip0_1141_415">
<rect width="32" height="32" fill="white"/>
</clipPath>
</defs>
</svg>
