<svg width="32" height="32" viewBox="0 0 32 32" fill="none" xmlns="http://www.w3.org/2000/svg">
<g clip-path="url(#clip0_1141_429)">
<rect opacity="0.3" x="0.00195312" width="32" height="32" rx="16" fill="white"/>
</g>
<path fill-rule="evenodd" clip-rule="evenodd" d="M20.0716 11.7554C19.7318 11.7554 19.4255 11.96 19.2955 12.2739C19.1655 12.5878 19.2374 12.9491 19.4776 13.1893C19.7179 13.4296 20.0792 13.5014 20.393 13.3714C20.7069 13.2414 20.9116 12.9351 20.9116 12.5954C20.9116 12.1315 20.5355 11.7554 20.0716 11.7554ZM23.292 13.4493C23.2784 12.8685 23.1696 12.2938 22.97 11.7483C22.792 11.2814 22.515 10.8587 22.158 10.5093C21.8114 10.1505 21.3877 9.87518 20.919 9.70425C20.3748 9.49856 19.7996 9.3873 19.218 9.37525C18.476 9.33325 18.238 9.33325 16.334 9.33325C14.43 9.33325 14.192 9.33325 13.45 9.37525C12.8684 9.3873 12.2931 9.49856 11.749 9.70425C11.2812 9.87691 10.8578 10.1519 10.51 10.5093C10.1512 10.8559 9.87591 11.2796 9.70498 11.7483C9.4993 12.2924 9.38803 12.8677 9.37598 13.4493C9.33398 14.1913 9.33398 14.4293 9.33398 16.3333C9.33398 18.2373 9.33398 18.4753 9.37598 19.2173C9.38803 19.7988 9.4993 20.3741 9.70498 20.9183C9.87591 21.3869 10.1512 21.8106 10.51 22.1573C10.8578 22.5146 11.2812 22.7896 11.749 22.9623C12.2931 23.1679 12.8684 23.2792 13.45 23.2913C14.192 23.3333 14.43 23.3333 16.334 23.3333C18.238 23.3333 18.476 23.3333 19.218 23.2913C19.7996 23.2792 20.3748 23.1679 20.919 22.9623C21.3877 22.7913 21.8114 22.5161 22.158 22.1573C22.5166 21.8091 22.7938 21.386 22.97 20.9183C23.1696 20.3727 23.2784 19.798 23.292 19.2173C23.292 18.4753 23.334 18.2373 23.334 16.3333C23.334 14.4293 23.334 14.1913 23.292 13.4493ZM22.0314 19.1333C22.0263 19.5776 21.9459 20.0179 21.7934 20.4353C21.6817 20.7399 21.5022 21.0152 21.2684 21.2403C21.0414 21.4716 20.7667 21.6508 20.4634 21.7653C20.046 21.9177 19.6058 21.9982 19.1614 22.0033C18.4614 22.0383 18.2024 22.0453 16.3614 22.0453C14.5204 22.0453 14.2614 22.0453 13.5614 22.0033C13.1001 22.0119 12.6407 21.9409 12.2034 21.7933C11.9135 21.6729 11.6514 21.4942 11.4334 21.2683C11.2011 21.0434 11.0238 20.7679 10.9154 20.4633C10.7445 20.0399 10.6498 19.5896 10.6354 19.1333C10.6354 18.4333 10.5934 18.1743 10.5934 16.3333C10.5934 14.4923 10.5934 14.2333 10.6354 13.5333C10.6386 13.079 10.7215 12.6288 10.8804 12.2033C11.0037 11.9078 11.1928 11.6444 11.4334 11.4333C11.6461 11.1926 11.9089 11.0014 12.2034 10.8733C12.6301 10.7193 13.0798 10.6388 13.5334 10.6353C14.2334 10.6353 14.4924 10.5933 16.3334 10.5933C18.1744 10.5933 18.4334 10.5933 19.1334 10.6353C19.5778 10.6404 20.018 10.7208 20.4354 10.8733C20.7535 10.9913 21.039 11.1833 21.2684 11.4333C21.4978 11.6483 21.6771 11.9112 21.7934 12.2033C21.949 12.6295 22.0295 13.0795 22.0314 13.5333C22.0664 14.2333 22.0734 14.4923 22.0734 16.3333C22.0734 18.1743 22.0664 18.4333 22.0314 19.1333ZM16.3333 12.7422C14.351 12.7461 12.7467 14.3555 12.7493 16.3379C12.7519 18.3202 14.3603 19.9255 16.3426 19.9242C18.325 19.9229 19.9313 18.3156 19.9313 16.3332C19.9332 15.379 19.5545 14.4635 18.8791 13.7895C18.2037 13.1154 17.2875 12.7385 16.3333 12.7422ZM16.3339 18.6642C15.0465 18.6642 14.0029 17.6206 14.0029 16.3332C14.0029 15.0458 15.0465 14.0022 16.3339 14.0022C17.6213 14.0022 18.6649 15.0458 18.6649 16.3332C18.6649 16.9514 18.4193 17.5443 17.9822 17.9815C17.545 18.4186 16.9521 18.6642 16.3339 18.6642Z" fill="white"/>
<defs>
<clipPath id="clip0_1141_429">
<rect width="32" height="32" fill="white" transform="translate(0.00195312)"/>
</clipPath>
</defs>
</svg>
