<svg width="32" height="32" viewBox="0 0 32 32" fill="none" xmlns="http://www.w3.org/2000/svg">
<g clip-path="url(#clip0_1141_444)">
<rect opacity="0.3" width="32" height="32" rx="16" fill="white"/>
</g>
<path fill-rule="evenodd" clip-rule="evenodd" d="M23.332 11.9704C22.8059 12.1999 22.2494 12.3516 21.68 12.4208C22.2808 12.06 22.7309 11.4924 22.947 10.8234C22.3825 11.1612 21.7646 11.3992 21.12 11.5271C20.234 10.5611 18.8105 10.319 17.6577 10.9382C16.5048 11.5574 15.9138 12.8815 16.22 14.1589C13.9117 14.0415 11.7615 12.9442 10.305 11.14C10.0524 11.5835 9.91969 12.0857 9.92003 12.5967C9.91821 13.5606 10.3965 14.4614 11.194 14.9963C10.7376 14.9838 10.291 14.8607 9.89203 14.6374V14.6726C9.89908 16.0434 10.8646 17.22 12.202 17.4874C11.9523 17.5638 11.693 17.6041 11.432 17.6071C11.2514 17.6049 11.0711 17.5885 10.893 17.5578C11.2717 18.7303 12.348 19.5326 13.574 19.5563C12.5641 20.3552 11.3171 20.7912 10.032 20.7948C9.79805 20.7956 9.56425 20.7815 9.33203 20.7526C10.6441 21.6043 12.1732 22.0564 13.735 22.0545C15.9122 22.0772 18.0071 21.2192 19.5487 19.6735C21.0902 18.1278 21.9491 16.024 21.932 13.8352C21.932 13.7156 21.932 13.5889 21.932 13.4623C22.4813 13.0505 22.9551 12.5456 23.332 11.9704Z" fill="white"/>
<defs>
<clipPath id="clip0_1141_444">
<rect width="32" height="32" fill="white"/>
</clipPath>
</defs>
</svg>
